#!OML:ASF Y:\EmotionMaleHayes\Project 1\Capture day 1\Session 1\Male1.ASF
:FULLY-SPECIFIED
:DEGREES
389
root 45.0936 16.4507 1.34702 -12.9564 -2.20939 -368.095
lowerback 22.2771 0.195536 -5.04984
upperback 4.374 -0.986869 -0.692973
thorax -7.56177 -0.37997 2.40944
lowerneck -8.93105 21.3446 17.2806
upperneck 9.47559 30.1193 -20.5312
head 10.2888 13.7007 -4.62923
rclavicle 7.15625e-015 -7.95139e-015
rhumerus -22.4925 12.147 -11.5286
rradius 118.15
rwrist 5.689
rhand -22.4652 -18.2191
rfingers 7.12502
rthumb 3.95959 -48.162
lclavicle 7.15625e-015 -7.95139e-015
lhumerus 20.6638 -0.107034 44.9737
lradius 49.653
lwrist 25.588
lhand -37.4046 -18.8141
lfingers 7.12502
lthumb -10.465 10.9054
rfemur -33.1238 10.6321 -0.19575
rtibia 49.2203
rfoot -9.96758 -22.3182
rtoes 22.2683
lfemur -3.58898 17.4324 -18.9308
ltibia 35.7588
lfoot -29.3763 18.2823
ltoes 36.3091
390
root 45.3187 16.4067 1.31738 -12.3837 0.675999 -367.802
lowerback 22.6774 -0.216989 -6.84786
upperback 4.5553 -1.95561 -0.685618
thorax -7.42606 -0.813043 3.71809
lowerneck -8.97435 21.4115 17.0703
upperneck 9.12512 30.1808 -20.688
head 10.1834 13.7287 -4.63985
rclavicle 2.82274e-014 4.29375e-014
rhumerus -26.112 10.1997 -15.0435
rradius 115.745
rwrist 4.79216
rhand -22.4239 -19.2799
rfingers 7.12502
rthumb 3.99946 -49.2221
lclavicle 2.82274e-014 4.29375e-014
lhumerus 25.7424 0.428232 45.4299
lradius 49.9398
lwrist 23.6666
lhand -34.7252 -17.5517
lfingers 7.12502
lthumb -7.8795 12.2815
rfemur -35.078 8.45332 -0.829441
rtibia 51.8685
rfoot -11.7082 -21.8423
rtoes 23.1677
lfemur -4.83901 15.37 -21.6629
ltibia 35.7886
lfoot -29.2369 17.7713
ltoes 36.8513
391
root 45.5568 16.3943 1.2966 -11.9237 3.5788 -368.342
lowerback 23.0836 -0.801482 -7.68826
upperback 5.03448 -2.89595 -0.4837
thorax -6.94204 -1.27872 4.67901
lowerneck -9.706 21.6085 16.5188
upperneck 8.78902 30.2842 -20.4332
head 10.0698 13.7442 -4.4166
rclavicle -8.34896e-015 1.74931e-014
rhumerus -29.3596 7.20801 -18.4165
rradius 113.186
rwrist 3.05177
rhand -22.2072 -20.4419
rfingers 7.12502
rthumb 4.20871 -50.3801
lclavicle -8.34896e-015 1.74931e-014
lhumerus 31.0682 0.956937 46.2356
lradius 50.2231
lwrist 21.4793
lhand -32.5943 -16.2581
lfingers 7.12502
lthumb -5.82249 13.6419
rfemur -36.447 5.64151 0.00778396
rtibia 54.3023
rfoot -12.2289 -21.997
rtoes 20.6145
lfemur -5.23523 13.5156 -23.1186
ltibia 34.9853
lfoot -28.5356 16.8478
ltoes 36.9918
392
root 45.8091 16.4151 1.27847 -11.5097 6.24773 -369.422
lowerback 23.5175 -1.40852 -7.79325
upperback 5.47704 -3.68807 -0.19699
thorax -6.54101 -1.68699 5.27321
lowerneck -10.0655 21.6858 16.5717
upperneck 8.26332 30.2715 -20.7247
head 10.0118 13.7232 -4.48256
rclavicle -2.82274e-014 -4.77083e-014
rhumerus -32.5017 3.78084 -21.6845
rradius 110.359
rwrist 0.662132
rhand -22.0319 -21.6478
rfingers 7.12502
rthumb 4.37792 -51.5825
lclavicle -2.82274e-014 -4.77083e-014
lhumerus 36.1475 0.902649 47.0526
lradius 50.6809
lwrist 19.2695
lhand -31.1469 -16.5465
lfingers 7.12502
lthumb -4.42498 13.3873
rfemur -37.4424 3.22319 1.71796
rtibia 56.223
rfoot -12.8562 -21.9925
rtoes 19.757
lfemur -5.10056 12.0128 -23.6761
ltibia 33.4629
lfoot -27.5297 15.6551
ltoes 37.1037
393
root 46.0741 16.4637 1.25982 -11.1265 8.63085 -370.811
lowerback 23.9616 -2.03786 -7.32649
upperback 5.8237 -4.37558 0.0973609
thorax -6.29913 -2.04306 5.5271
lowerneck -10.0516 21.6402 16.7302
upperneck 7.5893 30.1262 -21.2008
head 9.87088 13.6698 -4.68772
rclavicle 6.24184e-014 4.29375e-014
rhumerus -35.4605 0.0722776 -24.779
rradius 107.266
rwrist -2.59091
rhand -21.9512 -22.977
rfingers 7.12502
rthumb 4.45585 -52.9101
lclavicle 6.24184e-014 4.29375e-014
lhumerus 40.7494 0.264471 47.8961
lradius 51.3143
lwrist 16.7909
lhand -30.4482 -18.0669
lfingers 7.12502
lthumb -3.75026 11.8798
rfemur -38.5037 1.37827 3.97424
rtibia 58.0104
rfoot -14.0222 -21.4425
rtoes 21.1595
lfemur -4.67919 10.8567 -23.684
ltibia 31.429
lfoot -26.2474 14.4556
ltoes 37.3163
394
root 46.3538 16.5373 1.24708 -10.7391 10.6231 -372.104
lowerback 24.2986 -2.59568 -6.84491
upperback 6.12029 -4.95596 0.422152
thorax -6.07171 -2.34587 5.77351
lowerneck -9.68945 21.7606 16.095
upperneck 6.87573 30.2291 -21.0828
head 9.46074 13.7858 -4.61636
rclavicle -8.11041e-014 -7.95139e-015
rhumerus -38.0424 -3.84819 -27.4633
rradius 104.053
rwrist -6.94422
rhand -21.6666 -24.6652
rfingers 7.12502
rthumb 4.73072 -54.5924
lclavicle -8.11041e-014 -7.95139e-015
lhumerus 44.7801 -0.745569 49.0504
lradius 52.0796
lwrist 14.2228
lhand -30.6702 -19.3847
lfingers 7.12502
lthumb -3.96469 10.5581
rfemur -39.8055 -0.307448 6.71505
rtibia 59.4335
rfoot -12.1552 -21.8512
rtoes 9.91309
lfemur -3.91761 10.0212 -23.6548
ltibia 28.8259
lfoot -24.6812 13.3784
ltoes 37.8346
395
root 46.6311 16.6304 1.24327 -10.0812 12.1779 -372.987
lowerback 24.3593 -2.82941 -7.10434
upperback 6.32593 -5.27268 0.876344
thorax -5.75434 -2.52106 6.49522
lowerneck -9.2763 21.9013 15.484
upperneck 6.23555 30.431 -21.2216
head 9.14351 13.9327 -4.60292
rclavicle 1.66979e-014 1.74931e-014
rhumerus -40.3972 -7.99033 -29.4864
rradius 100.712
rwrist -12.0557
rhand -21.0256 -26.4064
rfingers 7.12502
rthumb 5.34963 -56.3189
lclavicle 1.66979e-014 1.74931e-014
lhumerus 48.3411 -2.09669 50.7761
lradius 52.9898
lwrist 11.7608
lhand -31.1634 -21.1629
lfingers 7.12502
lthumb -4.44094 8.77052
rfemur -41.2755 -0.943994 8.83783
rtibia 60.9726
rfoot -14.4219 -19.855
rtoes 18.1087
lfemur -3.03314 9.43004 -23.947
ltibia 25.6938
lfoot -23.0645 12.2747
ltoes 38.5768
396
root 46.9179 16.736 1.24563 -9.13066 13.8902 -373.274
lowerback 24.312 -2.96788 -7.93822
upperback 6.42516 -5.60964 1.22878
thorax -5.4366 -2.70342 7.43166
lowerneck -9.38687 21.9064 15.2964
upperneck 6.17851 30.401 -21.1066
head 9.08587 13.9226 -4.55073
rclavicle 4.6118e-014 -3.97569e-014
rhumerus -42.6592 -11.9172 -31.206
rradius 97.6076
rwrist -18.7817
rhand -21.7096 -29.9183
rfingers 7.12502
rthumb 4.68918 -59.8464
lclavicle 4.6118e-014 -3.97569e-014
lhumerus 51.4652 -3.99544 52.5281
lradius 54.142
lwrist 9.6293
lhand -32.1175 -23.6858
lfingers 7.12502
lthumb -5.36214 6.22631
rfemur -42.9807 -1.91734 10.668
rtibia 62.209
rfoot -14.2657 -18.7695
rtoes 16.3331
lfemur -2.14863 8.66149 -24.9993
ltibia 22.2557
lfoot -20.9756 11.2791
ltoes 38.5271
397
root 47.2145 16.8541 1.24847 -8.06963 15.455 -372.962
lowerback 24.2294 -3.07811 -8.92769
upperback 6.61012 -5.97045 1.11402
thorax -5.02331 -2.90545 7.93268
lowerneck -9.40721 22.0411 15.1391
upperneck 5.83565 30.4913 -20.9721
head 8.9371 13.9934 -4.48213
rclavicle 4.45278e-014 3.49861e-014
rhumerus -44.8003 -16.061 -32.8942
rradius 93.9955
rwrist -26.4541
rhand -22.2693 -32.2278
rfingers 7.12502
rthumb 4.1487 -62.1671
lclavicle 4.45278e-014 3.49861e-014
lhumerus 54.3809 -6.46652 53.5897
lradius 55.4842
lwrist 7.86308
lhand -33.7011 -26.3181
lfingers 7.12502
lthumb -6.89104 3.54973
rfemur -44.5393 -2.31475 11.8686
rtibia 63.1268
rfoot -13.5362 -17.2971
rtoes 11.191
lfemur -1.0061 7.86755 -26.6698
ltibia 18.4549
lfoot -18.3874 10.6159
ltoes 37.2812
398
root 47.4968 16.9665 1.25332 -6.56295 16.7553 -373.061
lowerback 23.5751 -3.21106 -9.71741
upperback 6.70009 -6.24685 1.23866
thorax -4.42665 -3.08585 8.50878
lowerneck -9.12264 22.2688 15.0708
upperneck 5.19836 30.7193 -21.0652
head 8.72154 14.1567 -4.48988
rclavicle 6.91771e-014 -4.45278e-014
rhumerus -46.6189 -20.0571 -34.0192
rradius 90.1151
rwrist -34.9751
rhand -21.531 -34.1558
rfingers 7.12502
rthumb 4.86165 -64.08
lclavicle 6.91771e-014 -4.45278e-014
lhumerus 56.9094 -9.21056 54.9176
lradius 56.8252
lwrist 6.40923
lhand -35.1704 -29.5671
lfingers 7.12502
lthumb -8.30927 0.249493
rfemur -46.8536 -2.36616 13.9973
rtibia 64.0807
rfoot -11.9512 -16.1519
rtoes 0.811894
lfemur -0.386459 7.26351 -27.782
ltibia 14.6448
lfoot -15.7616 9.82218
ltoes 35.8843
399
root 47.7841 17.0913 1.25636 -5.15773 18.1574 -373.236
lowerback 23.1341 -3.44334 -10.3546
upperback 6.78234 -6.62849 1.3555
thorax -3.93227 -3.31456 9.02697
lowerneck -8.957 22.5535 15.063
upperneck 4.70814 31.0318 -21.1276
head 8.59247 14.344 -4.45807
rclavicle 1.51076e-014 -5.08889e-014
rhumerus -48.2282 -23.5508 -35.0424
rradius 85.8064
rwrist -44.087
rhand -22.6625 -35.6516
rfingers 7.12502
rthumb 3.769 -65.598
lclavicle 1.51076e-014 -5.08889e-014
lhumerus 59.0881 -12.2342 56.0192
lradius 58.205
lwrist 5.96071
lhand -35.807 -33.4242
lfingers 7.12502
lthumb -8.92358 -3.63287
rfemur -48.6643 -1.50829 15.2637
rtibia 65.1988
rfoot -15.0942 -11.8573
rtoes 21.0286
lfemur 0.410273 6.20984 -28.8443
ltibia 10.7987
lfoot -12.8641 9.39699
ltoes 35.041
400
root 48.0807 17.2154 1.26199 -3.56209 19.5935 -373.271
lowerback 22.6568 -3.62222 -11.0962
upperback 6.77642 -6.95468 1.57136
thorax -3.48981 -3.51536 9.69701
lowerneck -9.04173 22.8063 15.1533
upperneck 4.51908 31.354 -21.3414
head 8.6528 14.4904 -4.43666
rclavicle -1.59028e-015 1.59028e-014
rhumerus -49.7474 -26.6121 -35.4353
rradius 81.6421
rwrist -53.922
rhand -24.2718 -37.9235
rfingers 7.12502
rthumb 2.21486 -67.8917
lclavicle -1.59028e-015 1.59028e-014
lhumerus 61.0403 -15.5746 56.9014
lradius 59.6143
lwrist 6.78427
lhand -35.2875 -37.7016
lfingers 7.12502
lthumb -8.42228 -7.88955
rfemur -50.7358 -1.32571 17.2414
rtibia 65.6253
rfoot -13.9101 -10.4749
rtoes 14.0697
lfemur 0.987231 5.15706 -30.0286
ltibia 7.107
lfoot -9.54745 9.12409
ltoes 34.1375
401
root 48.3821 17.3356 1.27079 -1.87604 21.0812 -373.226
lowerback 22.2242 -3.81107 -11.6105
upperback 6.68273 -7.25426 1.69468
thorax -3.20871 -3.68521 10.1365
lowerneck -9.51742 23.0308 14.9882
upperneck 4.75654 31.5896 -20.9012
head 8.73099 14.578 -4.18748
rclavicle 2.06736e-014 2.22639e-014
rhumerus -51.6097 -29.2067 -35.4356
rradius 77.1617
rwrist -63.5369
rhand -26.2253 -40.4019
rfingers 7.12502
rthumb 0.328105 -70.3814
lclavicle 2.06736e-014 2.22639e-014
lhumerus 62.884 -19.2241 57.0749
lradius 61.1857
lwrist 9.41171
lhand -37.2202 -41.2587
lfingers 7.12502
lthumb -10.287 -11.5303
rfemur -52.4947 -1.21035 19.1062
rtibia 65.3261
rfoot -12.6048 -8.579
rtoes 8.21149
lfemur 1.29602 4.69391 -31.1285
ltibia 3.88537
lfoot -6.12207 8.40195
ltoes 32.0224
402
root 48.6833 17.4523 1.28126 -0.180536 22.6325 -373.199
lowerback 21.851 -4.06909 -12.0007
upperback 6.54031 -7.62586 1.78774
thorax -3.00925 -3.88112 10.4907
lowerneck -9.4595 23.181 15.6049
upperneck 4.57024 31.7583 -21.3031
head 8.86509 14.656 -4.31066
rclavicle 1.59028e-015 3.49861e-014
rhumerus -53.1135 -31.3105 -35.188
rradius 72.4959
rwrist -71.8621
rhand -26.9142 -43.0198
rfingers 7.12502
rthumb -0.337233 -72.9993
lclavicle 1.59028e-015 3.49861e-014
lhumerus 64.7794 -23.1755 55.6842
lradius 62.4503
lwrist 10.5593
lhand -34.9818 -43.4853
lfingers 7.12502
lthumb -8.12724 -13.6615
rfemur -54.3248 -1.02963 20.9797
rtibia 65.1545
rfoot -11.8107 -6.2017
rtoes 5.5551
lfemur 1.3434 5.41811 -31.9391
ltibia 1.31238
lfoot -2.92039 6.73086
ltoes 28.8556
403
root 48.9877 17.5626 1.29468 1.43147 24.1719 -373.322
lowerback 21.5033 -4.32913 -12.2714
upperback 6.39479 -7.97003 2.03387
thorax -2.81999 -4.06651 10.9423
lowerneck -8.96117 23.3183 16.456
upperneck 3.92537 31.9798 -22.4395
head 8.97839 14.7798 -4.69305
rclavicle -1.35174e-014 9.54166e-015
rhumerus -54.4764 -32.8595 -34.7902
rradius 67.7582
rwrist -79.2892
rhand -29.5087 -46.6524
rfingers 7.12502
rthumb -2.84296 -76.6132
lclavicle -1.35174e-014 9.54166e-015
lhumerus 66.7343 -26.9731 54.1804
lradius 63.4826
lwrist 11.7498
lhand -35.721 -44.7695
lfingers 7.12502
lthumb -8.84053 -14.9746
rfemur -55.7806 -0.536486 22.89
rtibia 64.2162
rfoot -10.7827 -3.8074
rtoes 3.6667
lfemur 1.0608 8.17626 -32.2714
ltibia -0.247176
lfoot -0.626895 3.69
ltoes 24.9294
